<svg xmlns="http://www.w3.org/2000/svg" xmlns:xlink="http://www.w3.org/1999/xlink" width="217" height="84" viewBox="0 0 217 84"><defs><clipPath id="b"><rect width="217" height="84"/></clipPath></defs><g id="a" clip-path="url(#b)"><path d="M26.929.324C23.955-1.214,13.017,7.885,9.651,13.458s5.832,6.217,3.811,9.157c-1.108,1.612-7.586-1.343-9.562,3.35S.562,34.378.064,39.4c-.319,3.224,9.417-.088,11.568,3.274s-8.25,7.1-2.963,10.175,19.316,8.021,22.885,2.829c1.313-1.91,1.191-7.454.9-15.655s-6.712-1.809-9.568-3.658,9.4-6.954,8.8-13.539-9.151-.7-10.044-3.8,9.951,1.343,8.656-7.436S28.393,1.081,26.929.324Z" transform="translate(181.248 58.311) rotate(135)" fill="#b8eac9"/><path d="M4.017.271c2.059-1.065,9.635,5.237,11.967,9.1s-4.039,4.306-2.639,6.342c.767,1.116,5.254-.93,6.622,2.32a30,30,0,0,1,2.656,9.3c.221,2.233-6.522-.061-8.012,2.268s5.714,4.916,2.052,7.047S3.284,42.2.812,38.608C-.1,37.285-.013,33.446.186,27.766s4.649-1.253,6.626-2.533S.305,20.416.714,15.855s6.338-.486,6.956-2.631-6.892.93-6-5.15S3,.8,4.017.271Z" transform="translate(113.785 51.71) rotate(135)" fill="#c4ebc3"/><path d="M26.929.324C23.955-1.214,13.017,7.885,9.651,13.458s5.832,6.217,3.811,9.157c-1.108,1.612-7.586-1.343-9.562,3.35S.562,34.378.064,39.4c-.319,3.224,9.417-.088,11.568,3.274s-8.25,7.1-2.963,10.175,19.316,8.021,22.885,2.829c1.313-1.91,1.191-7.454.9-15.655s-6.712-1.809-9.568-3.658,9.4-6.954,8.8-13.539-9.151-.7-10.044-3.8,9.951,1.343,8.656-7.436S28.393,1.081,26.929.324Z" transform="translate(16.67 81.309) rotate(-121)" fill="#b1f2c7"/><path d="M4.96.3c2.55-1.319,11.929,6.484,14.816,11.263s-5,5.331-3.268,7.853c.95,1.382,6.505-1.152,8.2,2.873A37.142,37.142,0,0,1,28,33.807c.274,2.765-8.075-.076-9.92,2.808s7.075,6.086,2.54,8.725S4.053,52.218.992,47.766C-.134,46.128-.029,41.374.217,34.341s5.756-1.551,8.2-3.137S.364,25.241.871,19.595s7.847-.6,8.613-3.257S.95,17.49,2.061,9.961,3.7.949,4.96.3Z" transform="matrix(0.966, -0.259, 0.259, 0.966, 171.332, 6.931)" fill="#e0ebc3"/></g></svg>