<svg xmlns="http://www.w3.org/2000/svg" xmlns:xlink="http://www.w3.org/1999/xlink" width="217" height="84" viewBox="0 0 217 84"><defs><clipPath id="b"><rect width="217" height="84"/></clipPath></defs><g id="a" clip-path="url(#b)"><g transform="translate(-684 -321)"><rect width="22.9" height="36.471" rx="4" transform="matrix(0.848, -0.53, 0.53, 0.848, 698.815, 356.464)" fill="#ebbdac"/><rect width="25.869" height="34.774" rx="4" transform="matrix(0.848, -0.53, 0.53, 0.848, 699.77, 358.323)" fill="#ffccb9"/></g><g transform="translate(-663 -389.294)"><circle cx="3.05" cy="3.05" r="3.05" transform="translate(861 418.215)" fill="#363636"/><line y1="8.387" transform="translate(864.24 407.35)" fill="none" stroke="#363636" stroke-linecap="round" stroke-width="1"/><rect width="1.906" height="4.575" transform="translate(863.287 415.547)" fill="#363636"/><path d="M1.476,0h1.9s-.4,9.8,0,19.335S4.956,38.123,4.956,38.123H0s1.107-9.257,1.476-18.788S1.476,0,1.476,0Z" transform="translate(861.762 423.171)" fill="#363636"/></g><g transform="matrix(-0.259, -0.966, 0.966, -0.259, -61.908, 832.778)"><rect width="15.932" height="25.374" rx="2" transform="matrix(0.848, -0.53, 0.53, 0.848, 698.815, 352.772)" fill="#ebe9ac"/><path d="M2,0H16a2,2,0,0,1,2,2V22.194a2,2,0,0,1-2,2H2a2,2,0,0,1-2-2V2A2,2,0,0,1,2,0Z" transform="matrix(0.848, -0.53, 0.53, 0.848, 699.48, 354.065)" fill="#fffdba"/></g><g transform="matrix(-0.259, -0.966, 0.966, -0.259, -1.908, 811.778)"><rect width="15.932" height="25.374" rx="2" transform="matrix(0.848, -0.53, 0.53, 0.848, 698.815, 352.772)" fill="#717171"/><path d="M2,0H16a2,2,0,0,1,2,2V22.194a2,2,0,0,1-2,2H2a2,2,0,0,1-2-2V2A2,2,0,0,1,2,0Z" transform="matrix(0.848, -0.53, 0.53, 0.848, 699.48, 354.065)" fill="#9b9b9b"/></g></g></svg>