<svg xmlns="http://www.w3.org/2000/svg" xmlns:xlink="http://www.w3.org/1999/xlink" width="593.844" height="426.896" viewBox="0 0 593.844 426.896"><defs><clipPath id="a"><path d="M10925.451,211.268c-110.291,36.59-169.977,179.959-169.977,258.871s87.252,166.251,234.725,161.24,300.762-50.136,343.568-131.739-12.174-151.062-51.623-192.663-90.092,42.443-179.266,18.516S11035.746,174.678,10925.451,211.268Z" transform="translate(-10372.638 807.277)" fill="#d5be6e"/></clipPath></defs><g transform="translate(-382.837 -1011.967)" clip-path="url(#a)"><path d="M10925.451,211.268c-110.291,36.59-169.977,179.959-169.977,258.871s87.252,166.251,234.725,161.24,300.762-50.136,343.568-131.739-12.174-151.062-51.623-192.663-90.092,42.443-179.266,18.516S11035.746,174.678,10925.451,211.268Z" transform="translate(-10372.638 807.277)" fill="#d5be6e" stroke="#4b4327" stroke-width="8"/></g></svg>