<svg xmlns="http://www.w3.org/2000/svg" xmlns:xlink="http://www.w3.org/1999/xlink" width="423.997" height="277.976" viewBox="0 0 423.997 277.976"><defs><clipPath id="a"><path d="M10793.43,211.007c-71.609,23.757-37.955,114.8-37.955,166.032s56.65,107.943,152.4,104.689,195.277-32.552,223.07-85.535,56.234-86.059,30.621-113.07-99.967,57.237-175.816,0S10865.041,187.251,10793.43,211.007Z" transform="translate(-10211.638 945)" fill="#463e21"/></clipPath></defs><g transform="translate(-535.936 -1148.886)" clip-path="url(#a)"><path d="M10793.43,211.007c-71.609,23.757-37.955,114.8-37.955,166.032s56.65,107.943,152.4,104.689,195.277-32.552,223.07-85.535,56.234-86.059,30.621-113.07-99.967,57.237-175.816,0S10865.041,187.251,10793.43,211.007Z" transform="translate(-10211.638 945)" fill="#463e21" stroke="#000" stroke-width="10"/></g></svg>