<svg xmlns="http://www.w3.org/2000/svg" xmlns:xlink="http://www.w3.org/1999/xlink" width="777.262" height="663.566" viewBox="0 0 777.262 663.566"><defs><clipPath id="a"><path d="M10946.813,212.1c-124.151,41.188-172.085,93-175.657,289.872s61.321,310.513,227.327,304.873,427.267,177.847,491.843-80.4c58.444-222.81,35.008-158.8,55.174-265.556s-75.285-178.548-98.244-202.758c-44.406-46.829-87.376-2.331-213.968,0S11070.969,170.907,10946.813,212.1Z" transform="translate(-10493.638 868.628)" fill="#ffe383"/></clipPath></defs><g transform="translate(-277.378 -1069.876)" clip-path="url(#a)"><path d="M10946.813,212.1c-124.151,41.188-172.085,93-175.657,289.872s61.321,310.513,227.327,304.873,427.267,177.847,491.843-80.4c58.444-222.81,35.008-158.8,55.174-265.556s-75.285-178.548-98.244-202.758c-44.406-46.829-87.376-2.331-213.968,0S11070.969,170.907,10946.813,212.1Z" transform="translate(-10493.638 868.628)" fill="#ffe383" stroke="#312d1f" stroke-width="4"/></g></svg>