<svg xmlns="http://www.w3.org/2000/svg" xmlns:xlink="http://www.w3.org/1999/xlink" width="777.262" height="663.566" viewBox="0 0 777.262 663.566"><defs><clipPath id="a"><path d="M10946.813,212.1c-124.151,41.188-172.085,93-175.657,289.872s61.321,310.513,227.327,304.873,427.267,177.847,491.843-80.4c58.444-222.81,35.008-158.8,55.174-265.556s-75.285-178.548-98.244-202.758c-44.406-46.829-87.376-2.331-213.968,0S11070.969,170.907,10946.813,212.1Z" transform="translate(-10493.638 868.628)" fill="#ffe383"/></clipPath><clipPath id="b"><path d="M10925.451,211.268c-110.291,36.59-169.977,179.959-169.977,258.871s87.252,166.251,234.725,161.24,300.762-50.136,343.568-131.739-12.174-151.062-51.623-192.663-90.092,42.443-179.266,18.516S11035.746,174.678,10925.451,211.268Z" transform="translate(-10372.638 807.277)" fill="#d5be6e"/></clipPath><clipPath id="c"><path d="M10793.43,211.007c-71.609,23.757-37.955,114.8-37.955,166.032s56.65,107.943,152.4,104.689,195.277-32.552,223.07-85.535,56.234-86.059,30.621-113.07-99.967,57.237-175.816,0S10865.041,187.251,10793.43,211.007Z" transform="translate(-10211.638 945)" fill="#463e21"/></clipPath></defs><g transform="translate(-936.378 -891.876)"><g transform="translate(659 -178)" clip-path="url(#a)"><path d="M10946.813,212.1c-124.151,41.188-172.085,93-175.657,289.872s61.321,310.513,227.327,304.873,427.267,177.847,491.843-80.4c58.444-222.81,35.008-158.8,55.174-265.556s-75.285-178.548-98.244-202.758c-44.406-46.829-87.376-2.331-213.968,0S11070.969,170.907,10946.813,212.1Z" transform="translate(-10493.638 868.628)" fill="#ffe383" stroke="#312d1f" stroke-width="4"/></g><g transform="translate(645.001 -9)" clip-path="url(#b)"><path d="M10925.451,211.268c-110.291,36.59-169.977,179.959-169.977,258.871s87.252,166.251,234.725,161.24,300.762-50.136,343.568-131.739-12.174-151.062-51.623-192.663-90.092,42.443-179.266,18.516S11035.746,174.678,10925.451,211.268Z" transform="translate(-10372.638 807.277)" fill="#d5be6e" stroke="#4b4327" stroke-width="8"/></g><g transform="translate(590 -51)" clip-path="url(#c)"><path d="M10793.43,211.007c-71.609,23.757-37.955,114.8-37.955,166.032s56.65,107.943,152.4,104.689,195.277-32.552,223.07-85.535,56.234-86.059,30.621-113.07-99.967,57.237-175.816,0S10865.041,187.251,10793.43,211.007Z" transform="translate(-10211.638 945)" fill="#463e21" stroke="#000" stroke-width="10"/></g></g></svg>