<svg xmlns="http://www.w3.org/2000/svg" xmlns:xlink="http://www.w3.org/1999/xlink" width="1935.498" height="679.526" viewBox="0 0 1935.498 679.526"><defs><filter id="a" x="66.198" y="54" width="1868.801" height="623.948" filterUnits="userSpaceOnUse"><feOffset dy="-5" input="SourceAlpha"/><feGaussianBlur stdDeviation="5" result="b"/><feFlood flood-opacity="0.161"/><feComposite operator="in" in2="b"/><feComposite in="SourceGraphic"/></filter><filter id="c" x="238.278" y="111" width="1697.22" height="568.526" filterUnits="userSpaceOnUse"><feOffset dy="-5" input="SourceAlpha"/><feGaussianBlur stdDeviation="5" result="d"/><feFlood flood-opacity="0.161"/><feComposite operator="in" in2="d"/><feComposite in="SourceGraphic"/></filter></defs><g transform="translate(0 -412.052)"><path d="M12528.775,369.052s-545.02,165.261-1032.17,193.376S10608.277,1037,10608.277,1037h1920.5Z" transform="translate(-10608.277 43)" fill="#847954"/><g transform="matrix(1, 0, 0, 1, 0, 412.05)" filter="url(#a)"><path d="M12447.078,369.052S11925.244,516,11458.816,541s-850.539,422-850.539,422h1838.8Z" transform="translate(-10527.08 -295.05)" fill="#cebd84"/></g><g transform="matrix(1, 0, 0, 1, 0, 412.05)" filter="url(#c)"><path d="M12275.5,369.052s-473.142,133.24-896.045,155.908-771.175,382.618-771.175,382.618H12275.5Z" transform="translate(-10355 -238.05)" fill="#ffe9a0"/></g></g></svg>